<svg width="41" height="52" viewBox="0 0 41 52" fill="none" xmlns="http://www.w3.org/2000/svg">
<path d="M39.768 0H1.23197C0.554387 0 0 0.557807 0 1.23957V50.7604C0 51.4422 0.554387 52 1.23197 52H39.768C40.4456 52 41 51.4422 41 50.7604V1.23957C41 0.557807 40.4456 0 39.768 0ZM7.25631 44.5874H4.79237V42.1082H7.25631V44.5874ZM7.25631 35.898H4.79237V33.4188H7.25631V35.898ZM7.25631 27.1962H4.79237V24.717H7.25631V27.1962ZM7.25631 18.4944H4.79237V16.0153H7.25631V18.4944ZM7.25631 9.79261H4.79237V7.31347H7.25631V9.79261ZM35.8257 44.5874H12.1103V42.1082H35.838V44.5874H35.8257ZM35.8257 35.898H12.1103V33.4188H35.838V35.898H35.8257ZM35.8257 27.1962H12.1103V24.717H35.838V27.1962H35.8257ZM35.8257 18.4944H12.1103V16.0153H35.838V18.4944H35.8257ZM35.8257 9.79261H12.098V7.31347H35.838V9.79261H35.8257Z" fill="#364D64"/>
</svg>
