<svg width="38" height="42" viewBox="0 0 38 42" fill="none" xmlns="http://www.w3.org/2000/svg">
<path d="M36.866 34.7155H30.0621C29.5291 31.8976 27.1364 29.7695 24.2447 29.7695C21.353 29.7695 18.9603 31.8976 18.4273 34.7155H1.13399C0.510295 34.7155 0 35.2417 0 35.8848C0 36.5279 0.510295 37.0541 1.13399 37.0541H18.4273C18.9603 39.872 21.353 42 24.2447 42C27.1364 42 29.5291 39.872 30.0621 37.0541H36.866C37.4897 37.0541 38 36.5279 38 35.8848C38 35.2417 37.501 34.7155 36.866 34.7155Z" fill="#364D64"/>
<path d="M36.866 19.8308H16.3862C15.8532 17.0128 13.4605 14.8848 10.5688 14.8848C7.67711 14.8848 5.28439 17.0128 4.75142 19.8308H1.13399C0.510295 19.8308 0 20.3569 0 21C0 21.6431 0.510295 22.1693 1.13399 22.1693H4.75142C5.28439 24.9872 7.67711 27.1153 10.5688 27.1153C13.4605 27.1153 15.8532 24.9872 16.3862 22.1693H36.866C37.4897 22.1693 38 21.6431 38 21C38 20.3569 37.501 19.8308 36.866 19.8308Z" fill="#364D64"/>
<path d="M1.13399 7.28452H21.8973C22.4303 10.1025 24.823 12.2305 27.7147 12.2305C30.6064 12.2305 32.9991 10.1025 33.5321 7.28452H36.866C37.4897 7.28452 38 6.75835 38 6.11526C38 5.47216 37.4897 4.94599 36.866 4.94599H33.5321C32.9991 2.12806 30.6064 0 27.7147 0C24.823 0 22.4303 2.12806 21.8973 4.94599H1.13399C0.510295 4.94599 0 5.47216 0 6.11526C0 6.75835 0.510295 7.28452 1.13399 7.28452Z" fill="#364D64"/>
</svg>
