<svg width="42" height="42" viewBox="0 0 42 42" fill="none" xmlns="http://www.w3.org/2000/svg">
<path d="M16.0043 24.5317C21.6882 24.5317 26.2959 19.8982 26.2959 14.1826C26.2959 8.46689 21.6882 3.83344 16.0043 3.83344C10.3204 3.83344 5.71265 8.46689 5.71265 14.1826C5.71265 19.8982 10.3204 24.5317 16.0043 24.5317Z" fill="#364D64"/>
<path d="M22.6615 25.5822H22.117C20.2943 26.5657 18.2159 27.1357 16.0153 27.1357C13.8148 27.1357 11.7253 26.5769 9.91373 25.5822H9.60254C4.30114 25.5822 0 29.9074 0 35.2384V40.6924C0 41.4188 0.589045 42 1.30034 42H30.9637C31.6862 42 32.2641 41.4077 32.2641 40.6924V35.2384C32.2752 29.9074 27.9741 25.5822 22.6615 25.5822Z" fill="#364D64"/>
<path d="M32.3863 21.7488H31.8417C30.019 22.7323 27.9407 23.3023 25.7401 23.3023C25.5623 23.3023 25.1844 23.2911 25.1844 23.2911C30.6858 24.4869 34.8314 29.4156 34.8314 35.2943V38.1777H40.6885C41.4109 38.1777 41.9888 37.5854 41.9888 36.8701V31.405C41.9999 26.074 37.6988 21.7488 32.3863 21.7488Z" fill="#364D64"/>
<path d="M28.8965 14.2384C28.8965 16.5407 28.2852 18.6977 27.2294 20.5753C32.2085 19.8489 36.0206 15.546 36.0206 10.3491C36.0206 4.62693 31.4083 0 25.729 0C23.5395 0 21.5168 0.692922 19.8497 1.85524C25.0844 3.50931 28.8965 8.438 28.8965 14.2384Z" fill="#364D64"/>
</svg>
